PathFileType	4	(X/Y/Z)	Run_300 01
DataRate	CameraRate	NumFrames	NumMarkers	Units	OrigDataRate	OrigDataStartFrame	OrigNumFrames
100	100	4	42	mm	100	7	128
Frame#	Time	LASI			RASI			LPSI			RPSI			RTH1			RTH2			RTH3			LTH1			LTH2			LTH3			RTB1			RTB2			RTB3			LTB1			LTB2			LTB3			RCAL			RTOE			RMT5			LCAL			LTOE			LACR			RACR			CLAV			C7			RUA1			RUA2			RUA3			RLEL			RMEL			LUA1			LUA2			LUA3			LLEL			LMEL			RFAsuperior			RFAradius			RFAulna			LFAsuperior			LFAradius			LFAulna			LMT5			
		X1	Y1	Z1	X2	Y2	Z2	X3	Y3	Z3	X4	Y4	Z4	X5	Y5	Z5	X6	Y6	Z6	X7	Y7	Z7	X8	Y8	Z8	X9	Y9	Z9	X10	Y10	Z10	X11	Y11	Z11	X12	Y12	Z12	X13	Y13	Z13	X14	Y14	Z14	X15	Y15	Z15	X16	Y16	Z16	X17	Y17	Z17	X18	Y18	Z18	X19	Y19	Z19	X20	Y20	Z20	X21	Y21	Z21	X22	Y22	Z22	X23	Y23	Z23	X24	Y24	Z24	X25	Y25	Z25	X26	Y26	Z26	X27	Y27	Z27	X28	Y28	Z28	X29	Y29	Z29	X30	Y30	Z30	X31	Y31	Z31	X32	Y32	Z32	X33	Y33	Z33	X34	Y34	Z34	X35	Y35	Z35	X36	Y36	Z36	X37	Y37	Z37	X38	Y38	Z38	X39	Y39	Z39	X40	Y40	Z40	X41	Y41	Z41	X42	Y42	Z42	

1	0.43	732.94163	1046.03205	-441.54395	730.922419	1051.101522	-196.070405	557.927998	1128.497647	-360.902162	554.64948	1124.434862	-276.785955	692.211653	915.170035	-126.75292	774.07448	793.448112	-142.307967	733.950289	676.133748	-171.109473	646.480222	928.7951890000001	-503.421284	683.185577	797.719836	-480.524974	568.166398	684.805382	-473.869842	857.604684	459.047309	-224.865614	824.945569	349.168722	-183.411458	884.971236	261.272268	-238.974738	483.428515	470.283453	-413.448513	382.307223	486.39809	-470.097651	295.818784	385.923112	-397.442509	789.752566	115.861907	-291.358851	1018.744986	123.744035	-254.590634	982.520385	66.46374299999999	-186.391795	126.28856	441.618264	-361.647853	170.865018	213.938037	-372.942236	727.463934	1581.851251	-469.421307	670.813269	1561.164941	-145.614272	766.330746	1525.995701	-275.837569	642.7008489999999	1603.246783	-333.069204	571.08796	1486.945447	-74.514628	492.717178	1436.147071	-124.936782	496.222421	1396.723086	-55.315658	441.153318	1314.52415	-32.001795	426.610553	1302.076336	-110.690884	717.772612	1482.609087	-572.997512	658.265791	1396.466654	-583.874569	724.061649	1369.559442	-622.343419	746.606782	1283.533466	-649.626323	682.688358	1243.542848	-620.107427	463.66034	1237.671946	-14.526105	606.487333	1085.280202	-30.614187	540.538047	1059.254469	-26.556839	824.954225	1250.749332	-556.323221	868.239122	1281.725831	-408.799409	873.773058	1216.081849	-423.498436	115.61035	235.921405	-442.591278	
2	0.44	733.446924	1040.235978	-441.534775	731.433164	1044.361119	-195.367291	558.240269	1121.771989	-361.508858	554.0365	1117.819022	-276.301312	690.1154759999999	907.9158190000001	-126.215443	772.938382	787.523266	-141.498702	732.116408	670.455378	-172.741091	650.260551	922.45446	-503.596501	689.752369	792.538664	-481.222905	577.936411	676.907918	-475.04648	853.581044	451.036979	-226.242033	819.0132599999999	341.719637	-185.032394	876.85669	252.745795	-241.310899	491.625145	466.237605	-414.880617	391.389539	488.236101	-471.386244	299.174988	393.466552	-398.425559	777.131591	111.997092	-293.320321	1006.687451	110.384796	-262.690297	969.401831	55.762613	-192.509692	132.759285	458.698332	-362.698414	165.77251	229.170603	-377.157224	726.26959	1576.853369	-468.899051	670.636691	1554.256057	-143.386895	765.807694	1520.60366	-274.350934	641.990193	1597.106464	-330.730668	572.376849	1477.967683	-71.729945	494.015727	1426.331397	-120.890427	499.415719	1385.801697	-52.196305	445.063514	1302.913529	-29.305512	430.414743	1291.083091	-107.635192	714.384005	1477.310489	-571.730771	653.349938	1392.213893	-581.775298	718.252028	1363.910319	-621.0146549999999	739.096798	1277.911574	-648.697623	673.896543	1239.460524	-618.132031	468.730958	1226.881692	-11.73322	613.768027	1076.481059	-28.403233	548.218739	1049.84336	-23.962402	818.319867	1239.964577	-557.664951	865.645986	1265.829193	-410.054277	867.9285180000001	1200.531384	-426.661885	113.267026	255.335691	-447.739638	
3	0.45	733.856942	1033.591887	-441.793821	731.931617	1037.401733	-194.22258	558.382525	1114.062301	-362.248723	554.398041	1110.078792	-276.908297	688.4141049999999	900.094648	-127.988191	773.773051	781.703798	-142.140347	731.415089	664.260185	-173.449414	654.053816	915.218715	-503.71313	696.664303	786.2230070000001	-481.356711	588.532189	668.079323	-476.637681	848.9431970000001	441.214697	-228.232045	811.563567	333.008601	-187.117569	864.4124859999999	242.519638	-245.238057	501.013113	461.54695	-416.439553	402.102088	489.030598	-472.908556	304.775155	400.073982	-399.709682	757.656235	107.575924	-295.258823	988.33509	95.936549	-272.786709	950.193303	48.67922	-197.608752	141.367669	474.08118	-364.052355	164.983098	243.591822	-381.879981	724.783238	1570.65207	-467.966936	670.741148	1546.400165	-141.065401	765.354479	1514.170415	-272.865729	641.35681	1589.975562	-328.417357	574.308671	1468.293849	-68.424806	495.58304	1415.105212	-116.652508	502.899843	1373.770536	-48.85579	449.840918	1290.544817	-26.153303	434.805936	1278.727879	-104.320811	710.630645	1470.877715	-570.559127	648.13788	1387.088505	-579.876414	712.160856	1357.55309	-619.854092	731.060652	1271.575423	-648.115788	664.670155	1234.710515	-616.3845240000001	474.742004	1214.997074	-8.766845	622.357202	1067.014996	-26.557699	557.251498	1039.533056	-21.225562	810.985896	1228.36844	-559.5958419999999	862.286704	1248.446437	-412.043078	861.495076	1183.633515	-430.798795	114.97525	273.205264	-452.94807	
4	0.46	734.340733	1026.402316	-442.006312	732.362891	1030.233672	-192.78523	558.288228	1105.344822	-362.881996	554.529895	1101.271809	-277.86875	687.516417	891.7194480000001	-130.899503	775.771396	775.331852	-143.529068	731.85361	657.080177	-173.227187	657.890258	907.070071	-503.706555	704.020939	778.860288	-481.130184	599.787388	658.4202	-478.445441	843.347069	430.096337	-231.520957	802.057618	323.512868	-190.663924	846.961233	231.390717	-251.747	511.692373	456.287161	-417.986883	414.512248	488.865232	-474.82168	312.681377	405.707368	-401.436067	731.416573	101.339154	-298.528534	963.63785	83.66607	-281.412907	924.913284	46.671111	-199.911755	152.163956	487.71112	-365.732804	168.276607	256.787333	-386.739389	722.9928169999999	1563.478589	-466.588774	671.244207	1537.82815	-138.620767	765.1287579999999	1506.645117	-271.358155	640.6921170000001	1581.911548	-326.055981	576.881672	1457.96841	-64.490995	497.384379	1402.830324	-112.253822	506.738586	1360.80737	-45.397084	455.409522	1277.492477	-22.669061	439.680076	1265.20078	-100.802035	706.3763760000001	1463.607611	-569.452164	642.675662	1381.197483	-578.070165	705.85565	1350.643479	-618.801004	722.668194	1264.794505	-647.931995	655.452404	1229.462278	-615.180327	481.748858	1202.227894	-5.699672	632.261231	1057.188787	-25.023211	567.617439	1028.584171	-18.499243	803.0343810000001	1216.21464	-562.171464	858.0944019999999	1229.7405	-414.925916	854.315373	1165.528712	-435.879212	120.198171	289.166664	-457.85432	
